<svg width="24" height="29" viewBox="0 0 24 29" fill="none" xmlns="http://www.w3.org/2000/svg">
<g id="Group">
<path id="Vector" d="M5.99898 18.7238L11.9984 21.8444L17.9978 18.7238L11.9984 15.6033L5.99898 18.7238Z" fill="black"/>
<path id="Vector_2" d="M11.9984 28.0857V21.8446L5.99898 18.724V24.9651L11.9984 28.0857Z" fill="#904AFF"/>
<path id="Vector_3" d="M17.9975 6.24129V18.7235L11.9981 15.603V3.12073L17.9975 6.24129Z" fill="#904AFF"/>
<path id="Vector_4" d="M11.9981 3.12056L17.9975 6.24112L24 3.12056L17.9975 0L11.9981 3.12056Z" fill="black"/>
<path id="Vector_5" d="M24 3.12073V21.8441L11.9981 28.0852V21.8441L17.9975 18.7235V6.24129L24 3.12073Z" fill="#67D7F9"/>
<path id="Vector_6" d="M0 9.36177L5.99938 12.4823L11.9988 9.36177L5.99938 6.24121L0 9.36177Z" fill="black"/>
<path id="Vector_7" d="M11.9984 9.35754V21.8429L5.99898 24.9635V12.4812L11.9984 9.35754Z" fill="#67D7F9"/>
<path id="Vector_8" d="M5.99938 12.4812V24.9635L0 21.8429V9.35754L5.99938 12.4812Z" fill="#904AFF"/>
</g>
</svg>
