<svg width="1121" height="337" viewBox="0 0 1121 337" fill="none"
  xmlns="http://www.w3.org/2000/svg">
  <g clip-path="url(#clip0_1793_5538)">
    <path d="M1115.98 50.9749C1091.46 -9.78324 1002.93 4.1874 948.47 2.73374C944.544 2.95243 940.444 2.80449 933.244 6.47082C928.571 8.31685 863.639 12.7229 840.813 15.2571C819.786 11.9703 772.942 14.7426 716.996 14.3373C708.842 14.0994 701.983 16.9231 697.922 20.1006C666.271 1.50519 605.394 7.96951 585.379 30.8937C553.129 -0.353701 498.215 0.997056 463.418 28.7647C447.38 14.5496 445.176 19.9462 413.326 18.3253C403.16 18.4025 398.848 17.219 390.68 20.3578C385.356 17.3733 380.031 16.5886 376.905 16.4085C374.533 16.2734 339.621 13.8549 316.737 12.2598C306.894 11.0955 296.425 14.7554 290.546 21.8565C284.829 16.3185 277.029 13.2182 268.455 13.2182C259.296 13.2182 213.264 14.4081 208.088 14.9355C195.479 15.6624 184.34 25.3492 181.065 36.3032C164.641 11.3721 139.469 0.675446 106.858 0.0257981C51.421 -1.08053 12.3059 33.1771 3.55209 80.9166C-9.5851 152.558 14.1173 218.037 68.0327 234.562C116.81 249.51 153.005 236.33 175.805 214.853C180.808 215.033 188.098 214.866 198.799 214.905C215.952 214.969 228.78 216.436 238.507 205.077C254.1 220.179 262.177 213.741 297.818 213.316C313.462 218.674 300.344 215.657 334.477 217.452C330.603 228.567 325.736 243.785 321.784 255.279C312.682 289.634 296.019 308.107 310.014 326.696C315.57 333.861 324.653 337.257 333.948 336.91C340.62 336.659 449.405 327.442 560.039 327.455C670.681 327.461 775.746 336.1 786.073 336.91C795.349 337.637 804.451 333.861 810.007 326.696C824.021 307.907 807.332 289.737 798.243 255.279C793.653 242.171 788.709 225.724 783.933 213.168C799.68 212.274 805.933 212.255 815.396 202.214C820.695 211.097 830.454 216.243 841.374 216.166C847.504 216.166 892.743 215.162 918.147 214.583C920.423 229.782 929.306 237.276 947.052 238.209C957.952 238.196 973.771 238.164 987.836 238.164C1007.26 237.552 1006.96 240.473 1020.26 232.883C1034.35 241.476 1061.26 237.276 1082.57 238.897C1091.66 238.389 1095.38 239.347 1106.31 231.918C1121.87 217.24 1117.72 207.559 1118.27 181.059C1116.89 156.449 1114.57 142.993 1105.1 128.225C1121.16 104.696 1125.52 81.399 1115.95 50.9813L1115.98 50.9749Z" fill="black"/>
    <path d="M120.001 73.6483C120.659 76.9415 120.871 80.2476 125.455 80.1061C130.038 79.9646 168.283 77.6362 168.283 77.6362C168.283 77.6362 171.712 77.3467 171.48 74.2979C170.494 61.3049 166.581 11.2692 110.023 9.71262C52.3233 8.13031 31.3283 49.8879 27.0287 79.2507C22.0523 113.212 22.5616 181.721 74.3304 195.898C171.448 222.501 176.54 141.527 176.54 107.803C176.54 98.7465 174.026 99.1067 169.301 98.888C164.576 98.6693 114.348 100.509 112.511 100.65C110.674 100.792 107.921 101.146 107.779 105.513C107.637 109.881 107.85 128.843 107.921 130.747C107.992 132.65 108.978 133.988 111.737 133.847C114.496 133.705 119.228 133.139 120.568 133.281C121.909 133.422 125.964 135.3 120.568 141.951C114.844 149.001 98.4518 152.912 89.4207 146.39C79.4615 139.198 73.9501 117.702 78.5397 94.0189C83.1293 70.3357 93.4431 62.4434 104.395 62.7972C115.347 63.151 119.357 70.3421 120.014 73.6354L120.001 73.6483Z" fill="url(#paint0_linear_1793_5538)"/>
    <path d="M304.179 167.05C303.715 164.49 275.475 33.5502 274.721 29.9353C273.966 26.314 273.618 22.8728 268.455 22.8728C258.128 22.8728 214.075 24.1078 210.704 24.4551C207.333 24.8024 206.063 25.8895 204.851 30.5657C203.639 35.2418 175.972 164.766 175.25 167.133C173.794 171.88 174.709 173.115 178.087 173.115C182.47 173.115 210.472 173.083 213.347 173.083C216.222 173.083 219.245 173.533 219.696 170.671C220.148 167.802 221.057 152.416 221.508 150.757C221.959 149.097 222.262 146.685 225.743 146.383C229.217 146.081 245.848 144.872 248.723 144.724C251.598 144.576 254.319 144.872 254.77 148.345C255.221 151.818 257.058 168.535 257.187 169.68C257.432 171.803 257.954 173.128 260.977 173.122C263.556 173.115 297.372 171.494 300.112 171.378C303.522 171.237 304.759 170.246 304.179 167.056V167.05ZM245.945 116.075C243.676 116.377 233.298 116.364 230.655 116.364C228.012 116.364 227.251 114.1 227.709 111.836C228.16 109.572 232.743 76.4848 233.394 73.5711C234.136 70.2456 234.561 67.036 236.173 66.888C237.385 66.7723 238.442 67.1904 239.518 71.4163C240.595 75.6422 247.35 109.572 247.956 112.286C248.562 115.001 248.214 115.772 245.945 116.075Z" fill="url(#paint1_linear_1793_5538)"/>
    <path d="M314.945 21.8501C311.857 21.67 309.311 21.2133 309.13 25.4778C308.95 29.7423 308.492 168.4 308.221 171.211C307.951 174.022 309.401 174.382 310.948 174.749C312.495 175.116 349.457 176.016 350.914 176.106C352.371 176.196 353.363 175.116 353.641 173.115C353.918 171.115 354.092 86.1974 354.189 83.6631C354.285 81.1288 355.097 79.315 355.916 80.4921C356.735 81.6691 357.186 83.9333 357.914 87.6511C358.643 91.3688 378.626 167.043 379.077 168.677C379.528 170.311 379.986 171.031 382.255 171.308C384.524 171.584 437.93 173.032 441.295 173.122C444.66 173.212 445.201 171.308 445.382 168.683C445.562 166.059 445.382 37.5381 445.382 34.3671C445.382 31.196 444.563 28.7454 441.205 28.4752C437.846 28.2051 405.235 27.9285 402.515 27.8384C399.795 27.7484 398.97 28.8354 399.066 30.6493C399.163 32.4631 403.424 115.026 403.424 117.471C403.424 119.915 402.876 121.458 401.787 118.648C400.697 115.837 381.075 32.8233 380.263 30.2826C379.451 27.7419 378.626 26.2047 375.448 26.0246C372.27 25.8445 314.957 21.8565 314.957 21.8565L314.945 21.8501Z" fill="url(#paint2_linear_1793_5538)"/>
    <path d="M522.04 98.039C518.965 98.2769 518.107 100.084 517.869 104.092C517.63 108.099 517.134 116.068 517.224 117.721C517.36 120.127 517.811 121.594 520.293 121.478C522.774 121.362 527.441 121.915 529.685 121.909C531.928 121.902 532.876 124.617 530.987 127.331C529.098 130.045 524.251 135.944 514.324 134.882C504.397 133.821 497.68 125.517 497.216 108.253C496.829 93.9288 499.311 78.8583 508.058 70.2456C516.805 61.6329 527.338 62.5785 531.999 66.0004C536.659 69.4223 537.014 72.96 537.014 74.4908C537.014 76.0217 536.898 78.1443 539.85 78.1443C542.803 78.1443 573.892 75.4299 576.374 75.3141C578.856 75.1984 580.628 75.1984 581.099 73.0758C581.57 70.9531 580.39 44.4141 566.086 32.0322C551.782 19.6503 526.726 10.3301 494.341 23.8955C461.955 37.4609 452.46 73.5131 450.965 102.561C449.469 131.621 459.777 172.446 510.366 176.222C560.955 179.997 575.594 144.466 577.199 121.195C578.598 100.856 579.326 97.8396 575.897 97.7238C572.468 97.608 522.033 98.039 522.033 98.039H522.04Z" fill="url(#paint3_linear_1793_5538)"/>
    <path d="M593.694 120.661C591.909 120.5 589.549 120.095 589.227 123.253C588.905 126.411 587.764 153.401 611.563 171.147C635.362 188.893 673.587 184.198 691.475 171.147C710.298 157.414 722.765 127.145 699.365 101.056C684.165 84.1134 648.273 84.6022 639.745 77.3854C631.217 70.1749 636.335 57.1241 647.945 57.5293C659.554 57.9345 661.913 68.3096 662.32 71.7122C662.726 75.1148 662.565 76.7357 666.136 76.6585C670.442 76.562 704.877 75.6037 706.824 75.4429C708.77 75.2821 709.989 74.7096 710.234 72.201C710.724 67.2547 714.05 20.1134 649.466 18.7177C602.899 17.7078 587.893 48.5693 586.223 66.3992C584.076 89.3234 597.536 106.658 630.688 110.942C663.841 115.226 662.358 120.416 662.558 129.248C662.855 142.71 639.23 146.145 637.057 127.383C636.38 121.529 634.298 121.793 631.288 121.793C628.278 121.793 593.688 120.661 593.688 120.661H593.694Z" fill="url(#paint4_linear_1793_5538)"/>
    <path d="M717.279 23.9791C714.785 23.9791 712.155 23.6254 712.503 27.832C712.903 32.6368 713.902 58.5906 714.056 61.3886C714.211 64.1865 715.668 64.6754 717.698 64.7526C719.729 64.8298 740.195 65.0999 742.22 65.0227C744.244 64.9455 745.571 65.0227 745.649 66.5793C745.726 68.1359 747.518 168.651 747.518 170.124C747.518 171.597 748.066 173.392 751.102 173.154C754.138 172.916 789.901 171.057 792.706 170.742C795.51 170.426 796.135 169.5 796.367 167.474C796.599 165.454 795.278 70.5351 795.355 67.9687C795.432 65.4022 796.212 64.5467 797.85 64.4696C799.487 64.3924 827.063 64.5467 828.778 64.4696C830.493 64.3924 831.892 63.9228 832.207 61.8259C832.517 59.7291 833.136 46.5174 832.813 38.7474C832.349 27.7998 832.207 23.1365 828.623 23.2652C825.039 23.3938 717.279 23.9663 717.279 23.9663V23.9791Z" fill="url(#paint5_linear_1793_5538)"/>
    <path d="M842.85 24.8218C839.607 25.0147 838.834 25.8316 838.621 29.6266C838.389 33.8397 836.945 164.644 836.848 168.561C836.752 172.485 837.338 174.247 840.974 174.344C844.61 174.44 931.478 172.478 934.527 172.382C937.576 172.285 937.769 170.812 937.866 168.162C937.962 165.512 937.176 135.513 937.176 133.352C937.176 131.19 935.603 130.412 933.54 130.702C932.554 130.843 893.645 133.352 892.169 133.249C890.693 133.146 889.616 132.168 889.616 130.206C889.616 128.244 889.913 112.068 889.81 110.794C889.707 109.52 890.596 108.144 891.969 107.951C893.342 107.758 925.869 105.5 927.739 105.301C929.608 105.102 930.491 103.539 930.491 101.969C930.491 100.4 930.685 83.5345 930.685 81.3797C930.685 79.225 928.325 78.6332 926.559 78.8326C924.793 79.032 894.522 80.9874 892.852 81.0903C891.183 81.1932 890.003 79.5209 890.003 77.8549C890.003 76.189 890.3 63.2025 890.3 61.7295C890.3 60.2565 891.041 58.0953 893.194 57.7544C896.198 57.2785 926.901 55.5546 929.163 55.4582C931.426 55.3617 933.392 55.0658 933.585 52.8081C933.779 50.5504 935.113 23.5354 935.506 20.5894C935.9 17.6435 934.92 16.6658 931.967 16.8652C929.015 17.0646 842.843 24.8154 842.843 24.8154L842.85 24.8218Z" fill="url(#paint6_linear_1793_5538)"/>
    <path d="M1068.77 111.437C1071.44 109.701 1090.01 97.3637 1093.6 76.3112C1097.18 55.2523 1096.42 31.6334 1061.81 18.4218C1042.55 11.0698 1007.93 12.5878 1003.22 12.3884C998.504 12.189 948.579 12.3884 948.579 12.3884C946.761 12.5042 944.357 12.5042 944.241 15.7203C944.125 18.9364 944.183 61.0027 944.183 61.0027C944.183 61.0027 943.899 192.605 943.796 194.747C943.693 196.895 943.899 198.323 947.077 198.323C950.255 198.323 1000.24 198.22 1002.6 198.323C1004.96 198.426 1006.7 197.506 1006.59 194.952C1006.49 192.399 1005.06 142.209 1005.16 138.626C1005.27 135.043 1007.42 131.268 1015.82 133.313C1024.22 135.358 1032 144.942 1032.93 164.695C1033.69 180.847 1033.14 190.25 1033.11 192.36C1033.07 194.837 1032.69 197.512 1036.48 197.77C1040.1 198.02 1082.21 199.346 1085.89 198.94C1089.58 198.535 1091.63 198.123 1092.14 192.708C1092.65 187.292 1094.7 147.592 1086.09 130.56C1079.74 117.985 1070.62 115.329 1068.48 115.02C1066.32 114.711 1066.12 113.18 1068.79 111.444L1068.77 111.437ZM1032.29 92.1665C1025.33 97.1578 1010.2 96.1222 1006.99 96.0322C1003.78 95.9421 1002.49 95.5948 1002.49 92.2565C1002.49 86.4933 1002.95 72.3104 1003.96 63.7106C1004.58 58.4684 1007.54 57.8573 1010.2 57.9474C1010.2 57.9474 1037.07 54.9307 1038.62 71.2105C1039.48 80.2541 1038.67 87.5868 1032.29 92.16L1032.29 92.1665Z" fill="url(#paint7_linear_1793_5538)"/>
    <path d="M171.486 74.2978C170.719 66.6371 168.772 54.2423 162.171 42.6645C152.244 25.259 135.349 16.1061 111.962 15.4629C110.912 15.4371 109.861 15.4243 108.823 15.4243C84.9983 15.4243 65.8147 23.0399 51.7492 38.0976C36.9232 53.9658 32.2111 73.3716 30.7284 83.5344C29.1556 94.2439 26.2419 122.018 33.0555 148.416C37.2519 164.676 44.2846 177.212 54.057 185.921C22.5419 161.621 22.8255 108.034 27.0348 79.257C31.3344 49.8942 52.323 8.1302 110.029 9.71894C166.587 11.2691 170.493 61.3048 171.486 74.2978Z" fill="#FF8DB6"/>
    <path d="M176.54 107.121C175.953 104.368 174.497 104.31 171.57 104.195L170.9 104.162C166.452 103.963 117.152 105.719 114.567 105.918C112.64 106.066 111.15 106.42 111.054 109.514C110.925 113.573 111.099 130.052 111.17 133.86C108.836 133.802 107.985 132.522 107.921 130.753C107.85 128.849 107.637 109.887 107.779 105.52C107.921 101.146 110.673 100.798 112.511 100.657C114.348 100.515 164.576 98.6821 169.301 98.8944C173.91 99.1002 176.411 98.7722 176.54 107.121Z" fill="#FF8DB6"/>
    <path d="M123.482 146.524C120.51 150.184 114.754 153.143 108.45 154.249C101.578 155.459 95.119 154.333 90.7421 151.175C84.7472 146.846 80.6024 138.233 78.791 127.575C80.8989 136.246 84.6505 142.961 89.4142 146.396C98.4452 152.918 114.844 149.007 120.568 141.958C122.792 139.218 123.411 137.281 123.276 135.95C124.256 136.22 125.545 136.941 126.157 138.42C127.034 140.53 126.131 143.257 123.482 146.524Z" fill="#FF8DB6"/>
    <path d="M259.637 173.006C257.787 172.645 257.394 171.43 257.188 169.674C257.052 168.529 255.222 151.812 254.77 148.338C254.751 148.178 254.725 148.023 254.687 147.875C255.931 148.518 256.962 149.715 257.246 151.895C257.6 154.597 258.78 165.287 259.354 170.426C259.495 171.694 259.598 172.626 259.637 173.006Z" fill="#FF8DB6"/>
    <path d="M303.721 170.259C303.064 167.101 300.066 153.156 296.263 135.442C292.047 115.824 286.826 91.5874 282.668 72.2845C278.279 51.8881 274.811 35.7756 274.553 34.547L274.411 33.8588C273.689 30.2696 273.18 28.5458 269.583 28.5458C264.187 28.5458 250.663 28.8546 238.081 29.2083C225.504 29.5557 213.869 29.9544 212.27 30.1153C209.698 30.3725 208.699 30.855 207.571 35.2353C206.984 37.4994 199.874 70.5285 192.996 102.471C184.236 143.193 178.467 169.97 178.112 171.134C177.861 171.944 177.706 172.588 177.609 173.102C174.631 172.986 173.871 171.642 175.257 167.133C175.979 164.766 203.645 35.2417 204.857 30.5655C206.063 25.8893 207.333 24.7959 210.704 24.4485C214.075 24.1076 258.128 22.8726 268.455 22.8662C273.618 22.8662 273.966 26.3074 274.72 29.9287C275.481 33.55 303.721 164.483 304.179 167.049C304.456 168.574 304.321 169.597 303.721 170.259Z" fill="#FF8DB6"/>
    <path d="M445.375 168.67C445.272 170.163 445.06 171.417 444.273 172.208V172.195C444.344 171.134 444.402 148.255 444.279 45.3016C444.273 41.4552 444.267 39.0817 444.267 38.6829C444.267 35.0745 443.132 34.2576 441.301 34.1096C439.116 33.9295 423.62 33.7494 413.364 33.6272C408.014 33.5629 403.791 33.5114 402.876 33.4793C401.941 33.4536 401.265 33.5822 401 33.8523C400.82 34.0324 400.742 34.3926 400.768 34.9265L400.962 38.6121C403.714 92.0634 405.106 119.902 405.106 121.349C405.106 123.144 404.913 125.015 403.476 125.285C401.993 125.556 401.29 123.755 400.994 122.989C400.375 121.394 395.031 99.1838 387.541 67.9814C383.602 51.5472 379.876 36.02 379.554 35.023C378.806 32.701 378.303 31.8134 375.918 31.6783C372.786 31.4982 318.103 27.6903 315.737 27.5295L315.17 27.4909C314.635 27.4588 314.107 27.4266 313.636 27.4266C312.895 27.4266 312.282 27.5102 311.954 27.8061C311.496 28.2113 311.367 29.1697 311.335 29.903C311.251 31.749 311.116 60.2371 310.974 90.3974C310.748 137.121 310.58 170.819 310.439 174.62C309.104 174.266 307.989 173.7 308.228 171.205C308.498 168.4 308.956 29.7358 309.137 25.4712C309.317 21.2132 311.863 21.6698 314.951 21.8499C314.951 21.8499 372.263 25.8379 375.441 26.018C378.619 26.1981 379.438 27.7418 380.257 30.2761C381.069 32.8168 400.691 115.83 401.78 118.641C402.87 121.452 403.418 119.908 403.418 117.464C403.418 115.02 399.144 32.4501 399.054 30.6363C398.963 28.8288 399.782 27.7418 402.509 27.8318C405.229 27.9219 437.84 28.192 441.198 28.4622C444.557 28.7388 445.375 31.183 445.375 34.3541C445.375 37.5251 445.556 166.04 445.375 168.67Z" fill="#FF8DB6"/>
    <path d="M380.566 170.889C379.689 170.465 379.38 169.777 379.071 168.67C378.619 167.037 358.636 91.3623 357.908 87.6445C357.553 85.8242 357.263 84.3512 356.967 83.187C357.192 83.3221 357.418 83.5279 357.631 83.8367C358.611 85.2517 359.068 87.5866 359.822 91.4459C360.525 95.0543 378.136 161.691 380.566 170.889Z" fill="#FF8DB6"/>
    <path d="M581.105 73.0756C580.853 74.2077 580.228 74.7351 579.326 74.9924C579.093 68.4767 576.696 47.6493 564.783 37.345C558.75 32.1157 545.245 22.892 525.185 22.892C516.302 22.892 506.136 24.6994 494.765 29.4656C480.5 35.4411 469.587 46.4401 462.341 62.1667C456.714 74.3814 453.278 89.7478 452.408 106.594C452.002 114.467 452.292 128.026 457.236 141.321C451.757 128.701 450.345 114.621 450.97 102.561C452.466 73.513 461.961 37.4544 494.346 23.8889C526.732 10.33 551.788 19.6437 566.092 32.0321C580.396 44.414 581.575 70.953 581.105 73.0756Z" fill="#FF8DB6"/>
    <path d="M577.205 121.195C576.618 129.666 574.311 139.758 569.16 148.988C573.795 139.308 575.058 129.846 575.394 124.97C575.574 122.372 575.742 120.056 575.89 117.998C576.541 109.031 576.902 104.098 576.083 103.185C576.045 103.146 575.935 103.024 575.342 103.005C572.042 102.889 523.618 103.3 521.871 103.313C520.066 103.461 519.19 104.008 518.951 108.125L518.861 109.636C518.642 113.193 518.3 118.898 518.294 120.989C517.52 120.391 517.308 119.246 517.224 117.721C517.133 116.068 517.63 108.105 517.868 104.092C518.107 100.084 518.964 98.2769 522.039 98.0389C522.039 98.0389 572.473 97.608 575.903 97.7237C579.332 97.8395 578.604 100.856 577.205 121.195Z" fill="#FF8DB6"/>
    <path d="M531.773 131.898C526.436 139.552 519.158 140.498 514.001 139.951C502.733 138.742 496.281 128.894 495.836 112.222C495.604 103.673 496.332 93.0089 500.077 84.049C497.725 91.4331 496.99 99.9685 497.215 108.247C497.679 125.511 504.396 133.815 514.323 134.876C524.25 135.937 529.098 130.039 530.987 127.325C531.438 126.681 531.721 126.045 531.87 125.44C532.14 125.691 532.366 125.993 532.547 126.34C533.372 127.903 533.075 130.032 531.773 131.898Z" fill="#FF8DB6"/>
    <path d="M710.233 72.201C710.034 74.2528 709.176 75.0118 707.797 75.3077C708.126 70.5029 708.209 54.7698 696.967 42.1178C686.95 30.8486 670.654 24.8924 648.531 24.4165C647.803 24.3972 647.081 24.3907 646.365 24.3907C602.944 24.3907 588.563 53.3161 586.945 70.6765C586.623 74.0856 586.668 77.321 587.061 80.3698C586.03 76.0217 585.765 71.3391 586.229 66.3992C587.899 48.5628 602.905 17.7077 649.466 18.7111C714.056 20.1133 710.723 67.2546 710.233 72.201Z" fill="#FF8DB6"/>
    <path d="M662.874 132.869V133.049C663.042 140.523 656.583 145 650.427 145.425C643.587 145.894 636.142 141.732 634.943 131.37C634.427 126.932 633.454 126.945 630.863 126.945H630.489C627.511 126.945 594.449 125.864 593.043 125.813L592.676 125.781C592.199 125.736 591.806 125.71 591.477 125.71C590.375 125.71 590.046 126.044 589.923 127.241C589.91 127.357 589.485 132.026 590.587 138.754C588.776 130.804 589.085 124.662 589.227 123.253C589.549 120.095 591.909 120.5 593.694 120.661C593.694 120.661 628.291 121.793 631.295 121.793C634.298 121.793 636.387 121.536 637.064 127.389C639.236 146.145 662.861 142.71 662.565 129.248C662.558 128.971 662.552 128.701 662.545 128.431C662.771 129.801 662.842 131.274 662.874 132.869Z" fill="#FF8DB6"/>
    <path d="M709.369 140.24C710.652 128.051 706.456 116.171 697.231 105.886C688.207 95.8326 671.337 92.0698 657.781 89.0467C648.718 87.027 641.562 85.4382 638.056 82.4666C633.737 78.8196 632.254 73.4487 634.188 68.4573C634.652 67.261 635.284 66.1739 636.064 65.2091C634.717 69.2035 635.69 73.9568 639.745 77.3852C648.266 84.5956 684.165 84.1132 699.365 101.056C718.497 122.391 713.649 146.518 700.957 162.116C705.579 155.549 708.557 147.965 709.369 140.24Z" fill="#FF8DB6"/>
    <path d="M832.207 61.8388C831.923 63.7684 830.711 64.3216 829.184 64.4566C829.48 60.4365 829.919 49.7656 829.635 43.1212L829.616 42.6259C829.203 32.849 828.965 28.8868 826.805 28.9576C823.266 29.0798 720.399 29.6265 716.016 29.6522H715.461C714.385 29.6394 713.27 29.6265 712.87 30.0639C712.793 30.1475 712.722 30.2633 712.676 30.4112C712.612 29.2985 712.554 28.4108 712.509 27.8319C712.154 23.6317 714.784 23.9791 717.279 23.9791C717.279 23.9791 825.039 23.4066 828.623 23.278C832.207 23.1558 832.349 27.8126 832.806 38.7602C833.135 46.5302 832.516 59.7419 832.207 61.8388Z" fill="#FF8DB6"/>
    <path d="M796.366 167.48C796.154 169.326 795.625 170.266 793.408 170.645C793.491 166.741 793.066 132.168 792.756 106.671C792.531 87.9275 792.35 73.1271 792.383 72.0915C792.434 70.2905 792.821 67.9235 795.387 67.4475C795.367 67.6147 795.361 67.7948 795.354 67.9814C795.277 70.5478 796.605 165.461 796.366 167.48Z" fill="#FF8DB6"/>
    <path d="M935.512 20.5958C935.119 23.5352 933.785 50.5567 933.592 52.808C933.417 54.7891 931.877 55.2586 929.982 55.413C930.085 53.6313 930.252 50.5953 930.433 47.2377C930.929 38.1105 931.542 26.7513 931.799 24.8281C931.986 23.4195 931.748 22.9885 931.638 22.8663C931.516 22.7441 931.181 22.5511 930.24 22.5511C930.065 22.5511 929.866 22.5576 929.647 22.5769C926.759 22.7698 841.882 30.4048 841.025 30.482H840.987C839.704 30.5592 838.988 30.6299 838.576 31.1767C838.595 30.3662 838.608 29.8388 838.621 29.6265C838.833 25.8251 839.607 25.0146 842.849 24.8217C842.849 24.8217 929.028 17.0645 931.974 16.8651C934.919 16.6721 935.906 17.6498 935.512 20.5958Z" fill="#FF8DB6"/>
    <path d="M930.698 81.386C930.698 83.5472 930.498 100.412 930.498 101.982C930.498 103.551 929.615 105.121 927.745 105.314C927.603 105.326 927.281 105.359 926.804 105.397C926.817 103.995 926.849 100.592 926.888 97.0225C926.939 92.147 926.997 86.6218 926.997 85.4704C926.997 85.1359 926.901 84.9044 926.688 84.7114C926.237 84.3062 925.283 84.1068 924.322 84.2097C922.511 84.4091 892.549 86.3516 890.732 86.4609C889.726 86.5188 888.753 86.1522 887.992 85.4382C887.077 84.5763 886.535 83.277 886.535 81.9584C886.535 81.0901 886.612 77.2308 886.683 73.5001C886.754 70.1168 886.825 66.6113 886.825 65.9166C886.825 63.8133 887.953 61.3755 890.403 60.7773C890.338 61.1118 890.306 61.4399 890.306 61.7357C890.306 63.2023 890.01 76.1888 890.01 77.8612C890.01 79.5335 891.189 81.193 892.865 81.0965C894.535 80.9936 924.799 79.0382 926.572 78.8388C928.338 78.6459 930.698 79.2312 930.698 81.386Z" fill="#FF8DB6"/>
    <path d="M937.872 168.169C937.769 170.812 937.575 172.285 934.526 172.382C934.442 172.382 934.301 172.388 934.101 172.395C934.114 172.195 934.127 171.976 934.133 171.738C934.197 170.085 933.895 157.125 933.675 147.656C933.546 142.228 933.45 137.944 933.45 137.159C933.45 136.651 933.327 136.284 933.089 136.072C932.754 135.789 932.102 135.686 931.303 135.802C931.052 135.834 891.814 138.471 889.887 138.349C887.611 138.195 886.142 136.503 886.142 134.04C886.142 133.39 886.174 131.184 886.213 128.476C886.283 123.665 886.399 115.618 886.341 114.827C886.187 112.788 887.644 110.903 889.597 110.627C889.642 110.62 889.713 110.614 889.809 110.601C889.809 110.672 889.809 110.736 889.816 110.807C889.913 112.08 889.623 128.257 889.623 130.219C889.623 132.181 890.699 133.165 892.175 133.261C893.651 133.358 932.554 130.849 933.546 130.708C935.609 130.418 937.182 131.203 937.182 133.358C937.182 135.513 937.968 165.519 937.872 168.169Z" fill="#FF8DB6"/>
    <path d="M1006.59 194.946C1006.69 197.499 1004.95 198.426 1002.6 198.323C1002.57 198.323 1002.53 198.323 1002.48 198.316C1002.33 194.116 1000.96 145.849 1001.06 142.363C1001.13 139.906 1002.02 137.963 1003.65 136.728C1004.28 136.246 1005.01 135.879 1005.85 135.635C1005.38 136.555 1005.19 137.597 1005.16 138.626C1005.05 142.202 1006.49 192.392 1006.59 194.946Z" fill="#FF8DB6"/>
    <path d="M1092.13 192.701C1091.68 197.519 1090.01 198.368 1087.05 198.786C1087.3 198.123 1087.47 197.242 1087.58 196.065C1088.23 189.208 1089.81 151.001 1081.7 134.947C1075.03 121.735 1065.54 120.243 1065.14 120.185C1063.04 119.889 1062.55 118.673 1062.44 118.172C1062.24 117.265 1062.51 115.85 1064.92 114.274C1065.58 113.849 1066.43 113.27 1067.42 112.543C1066.3 113.791 1066.79 114.775 1068.46 115.013C1070.62 115.316 1079.73 117.972 1086.09 130.547C1094.69 147.579 1092.64 187.279 1092.13 192.701Z" fill="#FF8DB6"/>
    <path d="M1093.6 76.3046C1090.24 95.9998 1073.78 108.06 1069.48 110.961C1071.89 109.031 1074.76 106.446 1077.57 103.236C1082.59 97.505 1087.42 89.7735 1089.05 80.196C1090.56 71.2875 1091.77 59.7032 1087.56 49.1673C1083.14 38.0976 1073.54 29.8708 1058.24 24.0304C1042.16 17.8942 1014.69 18.055 1004.34 18.1193C1002.46 18.1321 1001.09 18.1386 1000.36 18.1128C995.809 17.9199 947.715 18.1064 946.116 18.1128L945.91 18.1257C945.182 18.1643 944.621 18.2222 944.195 18.3444C944.208 17.0129 944.221 16.0932 944.234 15.7137C944.357 12.4976 946.761 12.4976 948.572 12.3754C948.572 12.3754 998.497 12.176 1003.21 12.3754C1007.92 12.5748 1042.55 11.0632 1061.8 18.4152C1096.42 31.6268 1097.18 55.2457 1093.6 76.3046Z" fill="#FF8DB6"/>
    <path d="M1036.42 87.696C1035.19 92.7903 1032.66 95.3953 1030.09 97.2349C1027.56 99.0488 1024.05 100.104 1020.41 100.708C1016.77 101.313 1013 101.467 1009.95 101.467C1007.9 101.467 1006.18 101.397 1005.05 101.352C1004.68 101.339 1004.37 101.326 1004.13 101.319C1000.89 101.229 998.407 100.798 998.407 96.2765C998.407 90.8671 998.852 76.4719 999.877 67.737C1000.4 63.2603 1002.6 61.678 1004.57 61.1312C1004.29 61.8323 1004.08 62.6814 1003.96 63.7105C1002.95 72.3103 1002.49 86.4932 1002.49 92.2564C1002.49 95.5947 1003.78 95.9421 1006.99 96.0321C1010.19 96.1222 1025.33 97.1577 1032.29 92.1664C1034.07 90.8864 1035.42 89.3877 1036.42 87.696Z" fill="#FF8DB6"/>
    <path d="M250.232 119.863C249.555 120.828 248.401 121.105 247.364 121.24C246.603 121.343 244.998 121.42 242.516 121.471C240.028 121.516 236.663 121.542 232.389 121.542H231.983C230.217 121.542 229.198 120.751 228.65 120.088C227.742 118.982 227.426 117.31 227.787 115.502C227.812 115.367 227.858 115.097 227.922 114.724C228.341 115.695 229.224 116.364 230.655 116.364C233.305 116.364 243.683 116.371 245.945 116.068C248.214 115.772 248.563 115.001 247.957 112.286C247.351 109.572 240.595 75.6357 239.519 71.4098C239.39 70.9081 239.261 70.4514 239.132 70.0526C240.602 70.7537 241.394 72.6512 242.052 75.2241C242.774 78.0606 245.945 93.7294 248.26 105.172C249.375 110.685 250.251 115.033 250.451 115.92C250.832 117.618 250.928 118.873 250.232 119.863Z" fill="#FF8DB6"/>
    <path d="M603.151 207.984C600.185 207.984 598.116 208.28 598.116 210.795C598.116 213.31 599.302 286.27 599.154 289.074C599.006 291.878 599.973 293.326 603.118 293.287C606.67 293.242 626.363 293.763 629.058 293.763C631.282 293.763 632.036 292.174 632.184 290.11C632.332 288.045 631.997 275.193 629.702 258.335C629.386 256.026 630.863 256.251 632.294 257.872C637.579 263.873 646.243 277.162 652.876 287.993C655.261 291.891 655.699 294.361 657.981 294.541C661.308 294.805 682.902 295.32 685.377 295.448C687.176 295.545 687.885 294.902 688.02 292.946C688.194 290.438 687.949 273.682 688.749 251.993C689.374 235.14 690.799 211.895 690.857 210.248C690.921 208.35 690.67 207.469 688.865 207.289C686.912 207.09 663.989 207.443 662.139 207.553C660.508 207.649 659.219 208.009 659.283 210.447C659.348 212.885 659.38 241.482 659.528 243.702C659.677 245.921 659.232 248.249 657.305 245.625C647.822 232.658 632.326 212.859 629.96 210.64C627.594 208.421 626.853 208.125 623.295 207.977C619.737 207.829 603.151 207.977 603.151 207.977V207.984Z" fill="#FFBC00"/>
    <path d="M789.74 299.552C789.147 297.153 780.625 267.32 773.857 247.496C768.158 230.811 760.494 206.8 759.856 206.421C759.224 206.041 756.562 204.781 753.777 205.031C750.992 205.282 710.898 206.324 710.898 206.324C706.972 206.453 704.864 207.218 704.103 211.007C703.343 214.795 701.95 236.137 701.041 253.311C700.242 268.491 699.894 291.177 700.113 292.933C700.423 295.442 700.855 296.284 703.768 296.419C707.513 296.593 723.519 297.558 726.175 297.687C728.831 297.815 730.107 297.481 730.487 294.953C730.868 292.425 730.881 280.461 731.009 278.821C731.138 277.181 731.338 275.097 733.485 274.968C735.631 274.84 744.662 275 746.055 275C747.447 275 748.711 274.75 748.968 276.641C749.22 278.538 752.514 295.583 752.765 296.85C753.017 298.111 753.152 299.353 755.395 299.584C757.445 299.796 786.15 302.112 787.922 302.234C789.695 302.363 790.32 301.913 789.734 299.546L789.74 299.552ZM742.903 259.055C741.536 259.177 736.128 259.428 733.775 259.332C731.519 259.235 731.158 258.174 731.158 257.267C731.158 256.36 730.977 230.522 731.1 228.393C731.222 226.264 732.499 225.962 733.414 225.962C733.414 225.962 735.56 225.872 736.959 225.872C738.358 225.872 738.816 227.287 739.854 231.603C740.891 235.919 744.076 254.289 744.443 256.173C744.811 258.058 744.005 258.965 742.909 259.062L742.903 259.055Z" fill="#FFBC00"/>
    <path d="M332.123 302.241C333.896 302.112 362.601 299.796 364.651 299.591C366.9 299.359 367.029 298.118 367.281 296.857C367.532 295.596 370.826 278.545 371.077 276.647C371.329 274.75 372.599 275.007 373.991 275.007C375.383 275.007 384.408 274.853 386.561 274.975C388.714 275.097 388.914 277.187 389.036 278.828C389.165 280.468 389.178 292.432 389.558 294.959C389.939 297.487 391.215 297.815 393.871 297.693C396.527 297.564 412.532 296.6 416.278 296.426C419.198 296.291 419.623 295.448 419.933 292.94C420.152 291.177 419.804 268.491 419.004 253.318C418.095 236.144 416.703 214.802 415.942 211.013C415.182 207.225 413.074 206.453 409.148 206.331C409.148 206.331 369.053 205.289 366.269 205.038C363.484 204.787 360.828 206.048 360.19 206.427C359.558 206.807 351.894 230.824 346.189 247.503C339.414 267.327 330.899 297.159 330.306 299.558C329.719 301.925 330.344 302.369 332.117 302.247L332.123 302.241ZM375.622 256.167C375.989 254.282 379.174 235.912 380.212 231.596C381.249 227.28 381.701 225.865 383.106 225.865C384.511 225.865 386.651 225.955 386.651 225.955C387.567 225.955 388.843 226.258 388.965 228.387C389.088 230.516 388.907 256.347 388.907 257.261C388.907 258.174 388.54 259.235 386.29 259.325C383.937 259.422 378.523 259.177 377.163 259.049C376.067 258.952 375.267 258.045 375.628 256.161L375.622 256.167Z" fill="#FFBC00"/>
    <path d="M495.056 258.457C491.962 256.913 494.966 255.923 499.291 253.517C504.474 250.642 510.417 242.75 506.955 224.868C503.642 207.746 488.61 207.842 477.426 207.726C466.242 207.611 431.375 207.296 431.375 207.296C429.576 207.482 429.318 208.363 429.383 210.254C429.441 211.907 430.865 235.153 431.491 251.999C432.29 273.688 432.045 290.438 432.219 292.953C432.354 294.908 433.063 295.545 434.862 295.455C437.337 295.326 457.288 294.721 458.854 294.528C460.421 294.335 461.078 293.86 461.078 291.724C461.078 289.589 459.241 268.665 459.48 265.224C459.718 261.782 463.76 262.258 467.808 262.728C471.856 263.204 472.688 265.339 473.758 269.617C474.828 273.888 475.543 287.427 475.543 289.917C475.543 292.406 477.09 293.956 479.469 293.596C481.848 293.236 501.122 293.12 504.693 292.766C508.264 292.412 507.548 288.135 505.524 275.193C503.5 262.252 498.15 259.994 495.056 258.457ZM476.22 237.353C475.93 246.377 465.204 245.56 461.691 245.406C458.178 245.245 457.913 242.66 457.739 239.373C457.739 239.373 457.301 232.574 457.282 228.412C457.262 224.83 461.136 223.993 467.447 224.74C473.751 225.486 476.517 228.329 476.227 237.353H476.22Z" fill="#FFBC00"/>
    <path d="M518.938 285.337C518.712 288.926 520.002 292.509 524.527 292.644C529.052 292.779 541.751 292.579 554.804 292.38C567.858 292.181 582.548 292.38 584.547 292.38C586.545 292.38 587.744 292.38 588.008 288.791C588.273 285.202 588.389 276.37 587.854 273.714C587.319 271.057 584.953 270.131 580.022 270.125C574.33 270.118 549.789 270.196 548.713 270.144C547.275 270.073 545.541 269.109 545.541 265.088C545.541 261.068 545.922 259.004 548.184 258.875C550.447 258.746 568.567 258.74 570.965 258.611C573.363 258.483 576.425 258.611 576.689 255.691C576.953 252.771 576.953 245.689 576.953 243.959C576.953 242.229 575.89 240.64 572.428 240.64C568.966 240.64 548.99 240.473 548.049 240.505C546.173 240.575 545.535 237.861 545.535 235.102C545.535 232.342 545.78 229.769 548.042 229.499C550.305 229.229 582.013 228.837 583.477 228.567C584.94 228.297 587.203 227.235 587.338 224.45C587.473 221.665 587.738 213.091 587.473 211.097C587.209 209.103 586.01 207.778 583.348 207.778C580.686 207.778 532.823 207.913 526.828 207.778C520.833 207.643 517.049 209.946 517.507 216.461C517.958 222.861 519.621 274.183 518.932 285.337H518.938Z" fill="#FFBC00"/>
  </g>
  <defs>
    <linearGradient id="paint0_linear_1793_5538" x1="100.785" y1="27.0344" x2="100.785" y2="173.36" gradientUnits="userSpaceOnUse">
      <stop stop-color="#EE3824"/>
      <stop offset="1" stop-color="#F58222"/>
    </linearGradient>
    <linearGradient id="paint1_linear_1793_5538" x1="239.447" y1="27.0344" x2="239.447" y2="173.36" gradientUnits="userSpaceOnUse">
      <stop stop-color="#EE3824"/>
      <stop offset="1" stop-color="#F58222"/>
    </linearGradient>
    <linearGradient id="paint2_linear_1793_5538" x1="376.821" y1="27.0344" x2="376.821" y2="173.36" gradientUnits="userSpaceOnUse">
      <stop stop-color="#EE3824"/>
      <stop offset="1" stop-color="#F58222"/>
    </linearGradient>
    <linearGradient id="paint3_linear_1793_5538" x1="516.006" y1="27.0344" x2="516.006" y2="173.36" gradientUnits="userSpaceOnUse">
      <stop stop-color="#EE3824"/>
      <stop offset="1" stop-color="#F58222"/>
    </linearGradient>
    <linearGradient id="paint4_linear_1793_5538" x1="649.066" y1="27.0344" x2="649.066" y2="173.36" gradientUnits="userSpaceOnUse">
      <stop stop-color="#EE3824"/>
      <stop offset="1" stop-color="#F58222"/>
    </linearGradient>
    <linearGradient id="paint5_linear_1793_5538" x1="772.684" y1="27.0344" x2="772.684" y2="173.36" gradientUnits="userSpaceOnUse">
      <stop stop-color="#EE3824"/>
      <stop offset="1" stop-color="#F58222"/>
    </linearGradient>
    <linearGradient id="paint6_linear_1793_5538" x1="887.354" y1="27.0344" x2="887.354" y2="173.36" gradientUnits="userSpaceOnUse">
      <stop stop-color="#EE3824"/>
      <stop offset="1" stop-color="#F58222"/>
    </linearGradient>
    <linearGradient id="paint7_linear_1793_5538" x1="1019.4" y1="27.0344" x2="1019.4" y2="173.36" gradientUnits="userSpaceOnUse">
      <stop stop-color="#EE3824"/>
      <stop offset="1" stop-color="#F58222"/>
    </linearGradient>
    <clipPath id="clip0_1793_5538">
      <rect width="1121" height="337" fill="white"/>
    </clipPath>
  </defs>
</svg>
